<svg xmlns="http://www.w3.org/2000/svg" width="500" height="200" viewBox="0 0 500 200">
  <defs>
    <style>
      .cls-1 {
        fill: #fff;
        fill-rule: evenodd;
      }
    </style>
  </defs>
  <path id="STORE" class="cls-1" d="M25.284,92.185q8.1,8.1,29.15,8.1,11.986,0,19.865-3.461A27.464,27.464,0,0,0,86.566,86.67a26.155,26.155,0,0,0,4.389-14.631,23.185,23.185,0,0,0-3.292-12.211Q84.371,54.37,77.14,50.683T53.2,43.4q-6.753-1.406-8.554-3.039a4.592,4.592,0,0,1-1.857-3.545,5.777,5.777,0,0,1,2.251-4.586q2.25-1.885,6.7-1.885,5.4,0,8.469,2.532t4.024,8.1l24.029-1.407q-1.576-12.83-9.876-18.711t-24.113-5.88q-12.887,0-20.287,3.236A24.448,24.448,0,0,0,22.892,27.1a21.629,21.629,0,0,0-3.686,12.014,20.142,20.142,0,0,0,7.2,15.925q7.146,6.246,23.916,10.017,10.241,2.251,13.055,4.783a7.574,7.574,0,0,1,2.814,5.74,7.671,7.671,0,0,1-2.954,5.937q-2.954,2.561-8.413,2.56-7.316,0-11.255-5.008-2.42-3.094-3.208-9L16.112,71.589Q17.18,84.081,25.284,92.185Zm83.6-55.429h26V98.881h25.492V36.755h26V16.384H108.88V36.755Zm98.55,45.019a34.772,34.772,0,0,0,14.828,14.068q9.144,4.446,23.1,4.445,13.73,0,22.931-5.149a34.7,34.7,0,0,0,14.068-14.406q4.868-9.256,4.868-23.719,0-19.921-11.142-30.979T244.346,14.978q-20.089,0-31.345,11.255T201.747,57.689Q201.747,72.152,207.43,81.774Zm24.479-42.036a15.487,15.487,0,0,1,12.38-5.459q8.048,0,12.746,5.374t4.7,17.023q0,13.843-4.5,19.189t-12.718,5.346q-7.99,0-12.633-5.459T227.238,57.8Q227.238,45.2,231.909,39.738ZM338.461,98.881V65.4h2.251a10.7,10.7,0,0,1,6.247,1.913q2.025,1.464,4.614,6.359L365.2,98.881H394l-12.345-23.9a32.352,32.352,0,0,0-3.571-5.125,25.694,25.694,0,0,0-4.077-4.337,25.418,25.418,0,0,0-6.636-3.041,30.814,30.814,0,0,0,8.953-3.264,22.061,22.061,0,0,0,10.98-19.921,22.781,22.781,0,0,0-3.827-13.365,19.237,19.237,0,0,0-10.073-7.513q-6.246-2.026-18.064-2.026H312.857v82.5h25.6Zm0-65.84h11.2q6.976,0,9.51,2.138a7.583,7.583,0,0,1,2.532,6.134,7.618,7.618,0,0,1-1.6,4.783,6.738,6.738,0,0,1-4.136,2.589,38.356,38.356,0,0,1-6.753,1.125H338.461V33.041Zm75.8,65.84h69.554V80.2h-44V63.936h39.672V47.11H439.814V34h42.767V16.384H414.265v82.5Z"/>
  <path id="LOGO" class="cls-1" d="M24.631,183.3H58.616V172.721H37.9V140.348H24.631V183.3Zm130.289-8.906a18.113,18.113,0,0,0,7.72,7.324,27.469,27.469,0,0,0,12.026,2.314,24.181,24.181,0,0,0,11.939-2.68,18.07,18.07,0,0,0,7.324-7.5q2.533-4.82,2.534-12.349,0-10.371-5.8-16.128t-16.523-5.757q-10.46,0-16.318,5.86t-5.86,16.377A24.317,24.317,0,0,0,154.92,174.391Zm12.744-21.885a8.065,8.065,0,0,1,6.446-2.842,8.364,8.364,0,0,1,6.635,2.8q2.447,2.8,2.447,8.862,0,7.207-2.344,9.99a9.147,9.147,0,0,1-13.2-.058q-2.418-2.841-2.417-9.346Q165.233,155.348,167.664,152.506ZM324.1,167.74v4.043a22.874,22.874,0,0,1-4.629,2.2,13.894,13.894,0,0,1-4.248.645,9.214,9.214,0,0,1-7.31-2.988q-2.622-2.988-2.622-9.961,0-6.562,2.593-9.595a8.691,8.691,0,0,1,6.958-3.032,8.373,8.373,0,0,1,4.819,1.289,6.933,6.933,0,0,1,2.681,3.721l12.8-2.286a17.776,17.776,0,0,0-3.5-6.87,13.837,13.837,0,0,0-5.86-4q-3.529-1.288-10.649-1.289-7.383,0-11.748,2.08a18.785,18.785,0,0,0-8.5,7.9,24.706,24.706,0,0,0-2.9,12.231,25.514,25.514,0,0,0,2.651,11.836,17.839,17.839,0,0,0,7.471,7.764q4.818,2.607,12.465,2.607a35.349,35.349,0,0,0,10.738-1.45,42.03,42.03,0,0,0,10.415-5.464v-18.31H315.223v8.935H324.1Zm110.82,6.651a18.113,18.113,0,0,0,7.72,7.324,27.469,27.469,0,0,0,12.026,2.314,24.181,24.181,0,0,0,11.939-2.68,18.07,18.07,0,0,0,7.324-7.5q2.534-4.82,2.534-12.349,0-10.371-5.8-16.128t-16.523-5.757q-10.46,0-16.318,5.86t-5.86,16.377A24.317,24.317,0,0,0,434.92,174.391Zm12.744-21.885a8.065,8.065,0,0,1,6.446-2.842,8.364,8.364,0,0,1,6.635,2.8q2.446,2.8,2.447,8.862,0,7.207-2.344,9.99a9.147,9.147,0,0,1-13.2-.058q-2.418-2.841-2.417-9.346Q445.233,155.348,447.664,152.506Z"/>
</svg>
